<svg xmlns="http://www.w3.org/2000/svg" xmlns:xlink="http://www.w3.org/1999/xlink" width="290" zoomAndPan="magnify" viewBox="0 0 217.5 70.499998" height="94" preserveAspectRatio="xMidYMid meet"><defs><g></g><clipPath id="7420c662bf"><path d="M 0.519531 22.679688 L 42.421875 22.679688 L 42.421875 58.300781 L 0.519531 58.300781 Z M 0.519531 22.679688 " clip-rule="nonzero"></path></clipPath><clipPath id="f9fcdcf616"><path d="M 43 11.386719 L 63.328125 11.386719 L 63.328125 30 L 43 30 Z M 43 11.386719 " clip-rule="nonzero"></path></clipPath><clipPath id="5841bb4336"><path d="M 59 41 L 79 41 L 79 60.53125 L 59 60.53125 Z M 59 41 " clip-rule="nonzero"></path></clipPath><clipPath id="8fa881b7b6"><path d="M 48 29.253906 L 79.214844 29.253906 L 79.214844 60.53125 L 48 60.53125 Z M 48 29.253906 " clip-rule="nonzero"></path></clipPath><clipPath id="4d9ae4df70"><rect x="0" width="124" y="0" height="60"></rect></clipPath></defs><g clip-path="url(#7420c662bf)"><path fill="#ffffff" d="M 42.300781 24.789062 L 39.828125 25.632812 C 39.554688 25.734375 39.285156 25.839844 39.015625 25.945312 L 37.386719 26.574219 C 36.847656 26.792969 36.316406 27.027344 35.78125 27.257812 L 34.980469 27.601562 C 34.710938 27.714844 34.453125 27.847656 34.1875 27.96875 L 32.605469 28.714844 C 32.085938 28.976562 31.570312 29.246094 31.050781 29.511719 L 30.273438 29.914062 L 29.507812 30.339844 L 27.976562 31.195312 L 26.476562 32.09375 C 25.972656 32.390625 25.480469 32.707031 24.988281 33.023438 C 24.5 33.34375 24 33.648438 23.519531 33.980469 C 21.570312 35.28125 19.683594 36.675781 17.839844 38.121094 C 14.164062 41.035156 10.695312 44.222656 7.460938 47.640625 C 5.847656 49.351562 4.289062 51.121094 2.800781 52.945312 C 1.3125 54.769531 -0.125 56.640625 -1.433594 58.609375 C -0.203125 56.59375 1.160156 54.660156 2.582031 52.773438 C 4.003906 50.886719 5.496094 49.050781 7.054688 47.269531 C 10.167969 43.707031 13.535156 40.359375 17.136719 37.265625 C 18.945312 35.730469 20.800781 34.242188 22.726562 32.847656 C 23.203125 32.488281 23.699219 32.160156 24.183594 31.816406 C 24.671875 31.476562 25.15625 31.132812 25.660156 30.8125 L 27.152344 29.832031 L 28.679688 28.902344 L 29.441406 28.4375 L 30.222656 27.996094 C 30.742188 27.703125 31.257812 27.40625 31.78125 27.117188 L 33.371094 26.289062 C 33.636719 26.15625 33.898438 26.011719 34.167969 25.882812 L 34.976562 25.496094 C 35.515625 25.242188 36.050781 24.976562 36.597656 24.730469 L 38.246094 24.019531 C 38.519531 23.902344 38.792969 23.777344 39.070312 23.664062 L 39.910156 23.34375 L 41.585938 22.695312 L 42.300781 24.789062 " fill-opacity="1" fill-rule="nonzero"></path></g><g clip-path="url(#f9fcdcf616)"><path fill="#ffffff" d="M 63.21875 16.347656 C 62.859375 15.316406 59.953125 16.222656 59.953125 16.222656 L 56.167969 17.554688 L 54.179688 15.90625 C 54.546875 15.734375 54.675781 15.632812 54.675781 15.632812 L 54.675781 15.628906 C 54.734375 15.585938 54.683594 15.269531 54.554688 14.902344 C 54.425781 14.535156 54.269531 14.257812 54.195312 14.257812 C 54.195312 14.257812 53.804688 14.253906 52.738281 14.628906 C 52.714844 14.636719 52.695312 14.644531 52.671875 14.652344 L 48.980469 11.585938 C 48.792969 11.429688 48.535156 11.382812 48.300781 11.464844 L 47.441406 11.765625 C 47.292969 11.816406 47.238281 12 47.335938 12.128906 L 52.496094 18.839844 L 50.050781 19.699219 C 49.675781 19.828125 49.535156 19.902344 49.175781 20.070312 C 48.835938 20.230469 48.382812 20.472656 47.902344 20.746094 L 44.824219 18.453125 C 44.699219 18.359375 44.535156 18.335938 44.386719 18.386719 L 43.988281 18.527344 C 43.847656 18.578125 43.789062 18.742188 43.867188 18.871094 L 45.816406 22.046875 C 45.351562 22.371094 45.046875 22.628906 45.078125 22.714844 C 45.109375 22.800781 45.507812 22.808594 46.078125 22.773438 L 46.539062 26.472656 C 46.558594 26.621094 46.710938 26.714844 46.851562 26.664062 L 47.25 26.527344 C 47.398438 26.472656 47.507812 26.351562 47.546875 26.203125 L 48.523438 22.484375 C 49.066406 22.398438 49.566406 22.304688 49.929688 22.21875 C 50.3125 22.125 50.472656 22.089844 50.84375 21.960938 L 53.292969 21.101562 L 53.457031 29.574219 C 53.457031 29.734375 53.617188 29.84375 53.765625 29.789062 L 54.625 29.488281 C 54.855469 29.410156 55.03125 29.210938 55.078125 28.96875 L 56.046875 24.269531 C 56.070312 24.261719 56.089844 24.253906 56.113281 24.246094 C 57.179688 23.871094 57.480469 23.625 57.480469 23.625 C 57.539062 23.578125 57.488281 23.261719 57.359375 22.898438 C 57.230469 22.53125 57.074219 22.25 57 22.253906 L 57 22.25 C 57 22.25 56.832031 22.253906 56.441406 22.347656 L 56.964844 19.8125 L 60.746094 18.484375 C 60.746094 18.484375 63.582031 17.378906 63.21875 16.347656 " fill-opacity="1" fill-rule="nonzero"></path></g><g clip-path="url(#5841bb4336)"><path fill="#ff5a24" d="M 77.007812 43.398438 C 77.074219 43.863281 77.128906 44.339844 77.148438 44.816406 L 76.203125 44.816406 C 75.96875 45.207031 75.722656 45.59375 75.464844 45.984375 L 77.144531 45.984375 C 77.015625 49.167969 75.824219 52.082031 73.902344 54.371094 C 72.964844 53.832031 71.902344 53.367188 70.75 52.984375 C 70.925781 52.453125 71.085938 51.898438 71.226562 51.332031 C 70.886719 51.691406 70.550781 52.050781 70.199219 52.402344 C 69.769531 52.832031 69.335938 53.246094 68.898438 53.648438 C 69.019531 53.675781 69.144531 53.703125 69.261719 53.730469 C 67.988281 56.878906 66.023438 59.007812 63.777344 59.324219 L 63.777344 57.667969 C 63.390625 57.925781 63 58.171875 62.613281 58.40625 L 62.613281 59.324219 C 62.253906 59.273438 61.90625 59.160156 61.5625 59.019531 C 60.851562 59.410156 60.144531 59.746094 59.449219 60.054688 C 60.648438 60.363281 61.898438 60.542969 63.195312 60.542969 C 67.507812 60.542969 71.382812 58.738281 74.140625 55.847656 C 74.402344 55.574219 74.660156 55.300781 74.902344 55.007812 C 77.050781 52.394531 78.34375 49.046875 78.34375 45.402344 C 78.34375 44.097656 78.171875 42.835938 77.863281 41.632812 C 77.605469 42.214844 77.324219 42.804688 77.007812 43.398438 Z M 67.300781 58.761719 C 68.523438 57.628906 69.566406 56.007812 70.359375 54.050781 C 71.367188 54.378906 72.304688 54.769531 73.128906 55.222656 C 71.527344 56.84375 69.53125 58.074219 67.300781 58.761719 Z M 67.300781 58.761719 " fill-opacity="1" fill-rule="nonzero"></path></g><path fill="#ff5a24" d="M 51.492188 55.007812 C 51.734375 55.300781 51.992188 55.574219 52.253906 55.847656 C 52.988281 56.621094 53.8125 57.308594 54.695312 57.910156 C 55.203125 57.828125 55.734375 57.707031 56.296875 57.53125 C 55.1875 56.894531 54.160156 56.128906 53.265625 55.226562 C 54.089844 54.773438 55.027344 54.382812 56.039062 54.054688 C 56.488281 55.171875 57.03125 56.164062 57.632812 57.035156 C 57.980469 56.890625 58.328125 56.746094 58.679688 56.578125 C 58.09375 55.769531 57.570312 54.816406 57.132812 53.734375 C 58.804688 53.296875 60.65625 53.035156 62.617188 52.988281 L 62.617188 54.25 C 63.003906 53.980469 63.394531 53.695312 63.78125 53.398438 L 63.78125 52.988281 C 63.945312 52.992188 64.101562 53.007812 64.265625 53.015625 C 64.703125 52.667969 65.136719 52.308594 65.570312 51.933594 C 64.984375 51.878906 64.386719 51.839844 63.78125 51.824219 L 63.78125 45.984375 L 70.753906 45.984375 C 70.75 46.1875 70.726562 46.378906 70.71875 46.582031 C 71.1875 45.996094 71.632812 45.40625 72.046875 44.816406 L 71.917969 44.816406 C 71.863281 42.273438 71.445312 39.894531 70.75 37.816406 C 71.902344 37.433594 72.96875 36.96875 73.90625 36.429688 C 74.441406 37.070312 74.914062 37.761719 75.332031 38.492188 C 75.507812 37.921875 75.628906 37.386719 75.714844 36.875 C 75.457031 36.503906 75.191406 36.140625 74.90625 35.792969 C 74.664062 35.5 74.40625 35.226562 74.144531 34.953125 C 71.386719 32.0625 67.507812 30.257812 63.199219 30.257812 C 58.890625 30.257812 55.011719 32.0625 52.253906 34.953125 C 51.992188 35.226562 51.734375 35.5 51.492188 35.792969 C 49.34375 38.40625 48.054688 41.753906 48.054688 45.402344 C 48.054688 49.046875 49.34375 52.394531 51.492188 55.007812 Z M 73.128906 35.578125 C 72.304688 36.027344 71.367188 36.417969 70.359375 36.746094 C 69.566406 34.789062 68.523438 33.171875 67.300781 32.039062 C 69.53125 32.726562 71.527344 33.957031 73.128906 35.578125 Z M 63.78125 31.476562 C 66.023438 31.792969 67.992188 33.921875 69.265625 37.070312 C 67.589844 37.507812 65.738281 37.769531 63.78125 37.8125 Z M 63.78125 38.976562 C 65.878906 38.929688 67.863281 38.636719 69.660156 38.148438 C 70.308594 40.109375 70.699219 42.382812 70.753906 44.816406 L 63.78125 44.816406 Z M 62.617188 51.824219 C 60.519531 51.871094 58.535156 52.160156 56.738281 52.652344 C 56.089844 50.691406 55.695312 48.417969 55.644531 45.980469 L 62.617188 45.980469 Z M 62.617188 44.816406 L 55.644531 44.816406 C 55.699219 42.382812 56.089844 40.109375 56.738281 38.148438 C 58.535156 38.636719 60.519531 38.929688 62.617188 38.976562 Z M 62.617188 31.476562 L 62.617188 37.8125 C 60.65625 37.769531 58.804688 37.503906 57.132812 37.066406 C 58.40625 33.917969 60.371094 31.792969 62.617188 31.476562 Z M 59.09375 32.039062 C 57.875 33.171875 56.828125 34.789062 56.039062 36.746094 C 55.027344 36.417969 54.09375 36.027344 53.265625 35.578125 C 54.871094 33.957031 56.863281 32.726562 59.09375 32.039062 Z M 52.492188 36.429688 C 53.429688 36.96875 54.492188 37.433594 55.648438 37.816406 C 54.949219 39.890625 54.535156 42.273438 54.480469 44.816406 L 49.25 44.816406 C 49.382812 41.632812 50.570312 38.71875 52.492188 36.429688 Z M 54.480469 45.984375 C 54.535156 48.527344 54.949219 50.90625 55.648438 52.984375 C 54.492188 53.367188 53.429688 53.832031 52.492188 54.371094 C 50.570312 52.082031 49.382812 49.167969 49.25 45.984375 Z M 54.480469 45.984375 " fill-opacity="1" fill-rule="nonzero"></path><g clip-path="url(#8fa881b7b6)"><path fill="#ff5a24" d="M 58.167969 59.339844 C 61.820312 57.910156 65.800781 55.152344 69.378906 51.578125 C 72.953125 48 75.710938 44.019531 77.136719 40.371094 C 78.5 36.886719 78.496094 34.054688 77.175781 32.285156 L 78.375 31.964844 L 79.242188 31.738281 L 77.695312 31.089844 L 76.40625 30.546875 L 73.46875 29.3125 L 74.703125 32.25 L 75.296875 33.664062 L 75.730469 34.695312 L 75.894531 35.085938 L 76.398438 33.183594 C 77.300781 34.640625 77.1875 37.046875 76.054688 39.945312 C 74.683594 43.449219 72.019531 47.289062 68.554688 50.753906 C 65.085938 54.21875 61.25 56.882812 57.746094 58.253906 C 56.128906 58.886719 54.667969 59.199219 53.4375 59.195312 C 52.152344 59.195312 51.117188 58.855469 50.429688 58.167969 C 49.574219 57.3125 49.253906 55.917969 49.464844 54.171875 C 49.140625 53.664062 48.847656 53.140625 48.578125 52.597656 C 47.898438 55.382812 48.234375 57.621094 49.605469 58.992188 C 50.527344 59.910156 51.828125 60.371094 53.425781 60.371094 C 53.429688 60.371094 53.429688 60.371094 53.429688 60.371094 C 54.808594 60.371094 56.40625 60.027344 58.167969 59.339844 Z M 58.167969 59.339844 " fill-opacity="1" fill-rule="nonzero"></path></g><g transform="matrix(1, 0, 0, 1, 63, 3)"><g clip-path="url(#4d9ae4df70)"><g fill="#ffffff" fill-opacity="1"><g transform="translate(1.558153, 26.046501)"><g><path d="M 9.46875 0.078125 L 8.921875 0.03125 L 8.390625 0.078125 L 7.75 0.046875 L 7.234375 -0.046875 L 6.125 0.03125 L 5.640625 0 L 5.03125 0.046875 L 3.078125 0.03125 L 2.265625 -0.328125 L 2.046875 -1.0625 L 1.984375 -1.65625 L 2.0625 -3.53125 L 1.984375 -4.078125 L 2.046875 -4.59375 L 2.0625 -9.015625 L 1.984375 -9.5 L 2.015625 -11.734375 L 2.0625 -12.25 L 1.984375 -12.8125 L 2.046875 -15.484375 L 1.953125 -16.09375 L 2.046875 -17.203125 L 1.984375 -18.234375 L 2.28125 -18.8125 L 2.859375 -19.03125 L 3.40625 -19 L 3.953125 -19.046875 L 4.4375 -19 L 4.953125 -19.109375 L 5.5 -19.03125 L 7.734375 -19.078125 L 8.28125 -19.03125 L 8.734375 -19.046875 L 9.28125 -19 L 9.875 -19.046875 L 12.078125 -19.078125 L 12.578125 -18.96875 L 13.140625 -18.96875 L 13.6875 -18.75 L 13.9375 -18.234375 L 13.984375 -16.609375 L 13.96875 -16.0625 L 13.984375 -15.515625 L 13.71875 -15.03125 L 13.140625 -14.703125 L 12.625 -14.671875 L 8.734375 -14.71875 L 8.21875 -14.609375 L 7.703125 -14.640625 L 7.109375 -14.421875 L 6.859375 -13.90625 L 6.859375 -13.0625 L 7.078125 -12.21875 L 7.65625 -11.96875 L 9.234375 -12.03125 L 10.375 -11.953125 L 10.9375 -12 L 12.546875 -12 L 13.171875 -11.65625 L 13.453125 -10.890625 L 13.359375 -8.4375 L 13.171875 -7.890625 L 12.625 -7.671875 L 12 -7.703125 L 11.453125 -7.65625 L 10.34375 -7.671875 L 9.3125 -7.625 L 8.4375 -7.703125 L 7.625 -7.671875 L 7.125 -7.375 L 6.890625 -6.8125 L 6.890625 -5.09375 L 7.109375 -4.59375 L 7.671875 -4.328125 L 8.28125 -4.375 L 8.796875 -4.296875 L 9.390625 -4.328125 L 9.9375 -4.265625 L 10.828125 -4.375 L 12.21875 -4.359375 L 12.734375 -4.265625 L 13.359375 -4.328125 L 13.9375 -4.078125 L 14.234375 -3.53125 L 14.234375 -0.796875 L 13.9375 -0.21875 L 13.359375 0.03125 Z M 9.46875 0.078125 "></path></g></g></g><g fill="#ffffff" fill-opacity="1"><g transform="translate(17.152063, 26.046501)"><g><path d="M 0.359375 -0.765625 L 0.796875 -1.609375 L 2.421875 -4 L 2.640625 -4.46875 L 3.078125 -4.984375 L 3.296875 -5.359375 L 4 -6.3125 L 4.171875 -6.71875 L 5.09375 -8.0625 L 5.3125 -8.515625 L 5.6875 -9.015625 L 5.953125 -9.390625 L 6.09375 -10.046875 L 5.90625 -10.703125 L 5.578125 -11.15625 L 5.359375 -11.703125 L 5.09375 -12.171875 L 4.734375 -12.546875 L 4.140625 -13.53125 L 3.8125 -13.96875 L 2.671875 -15.8125 L 2.28125 -16.1875 L 2.015625 -16.65625 L 1.6875 -17.125 L 1 -18.1875 L 1.09375 -18.859375 L 1.765625 -19.046875 L 5.140625 -19.03125 L 5.859375 -18.8125 L 6.3125 -18.34375 L 6.640625 -17.875 L 6.859375 -17.421875 L 7.21875 -17.015625 L 8.515625 -14.75 L 8.90625 -14.234375 L 9.25 -14.265625 L 9.5 -14.703125 L 9.828125 -15.15625 L 10.640625 -16.609375 L 11 -17.03125 L 11.8125 -18.3125 L 12.328125 -18.8125 L 13.3125 -19.03125 L 13.828125 -19.046875 L 14.71875 -19 L 15.296875 -19.046875 L 16.328125 -18.96875 L 16.875 -18.78125 L 17.0625 -18.234375 L 13.453125 -12.578125 L 13.03125 -12.140625 L 12.71875 -11.671875 L 12.5 -11.21875 L 12.1875 -10.75 L 11.96875 -10.09375 L 12.0625 -9.4375 L 12.4375 -8.984375 L 12.984375 -8.0625 L 13.34375 -7.671875 L 13.875 -6.71875 L 14.15625 -6.3125 L 14.421875 -5.796875 L 14.8125 -5.390625 L 15.140625 -4.921875 L 15.34375 -4.4375 L 15.703125 -4.0625 L 15.953125 -3.625 L 16.296875 -3.1875 L 17.453125 -1.421875 L 17.6875 -0.734375 L 17.578125 -0.15625 L 17.140625 0 L 14.9375 0.046875 L 14.484375 0 L 13.421875 0.03125 L 12.8125 -0.15625 L 12.28125 -0.625 L 10.3125 -3.890625 L 10.15625 -4.328125 L 9.765625 -4.796875 L 9.578125 -5.3125 L 9.28125 -5.796875 L 8.921875 -5.75 L 7.734375 -3.890625 L 6.5 -1.578125 L 5.90625 -0.65625 L 5.328125 -0.21875 L 4.65625 0 L 2.609375 0 L 2.0625 0.046875 L 1.609375 0.03125 L 1.0625 0.046875 L 0.515625 -0.15625 Z M 0.359375 -0.765625 "></path></g></g></g><g fill="#ffffff" fill-opacity="1"><g transform="translate(35.195279, 26.046501)"><g><path d="M 3.640625 0.078125 L 3.15625 0.046875 L 2.3125 -0.21875 L 2.015625 -0.734375 L 2.046875 -5.765625 L 1.984375 -6.28125 L 2.015625 -13.34375 L 1.953125 -13.859375 L 2.0625 -14.9375 L 2.046875 -18.234375 L 2.28125 -18.671875 L 2.859375 -18.96875 L 3.421875 -19.078125 L 3.921875 -19 L 4.515625 -18.96875 L 6.203125 -19.078125 L 6.75 -19 L 8.40625 -18.96875 L 9.015625 -19.046875 L 9.875 -19.078125 L 10.703125 -19.046875 L 11.234375 -18.859375 L 11.78125 -18.859375 L 12.25 -18.671875 L 13.34375 -18.34375 L 14.234375 -17.75 L 15.453125 -16.6875 L 16.109375 -15.78125 L 16.625 -14.859375 L 16.953125 -13.859375 L 17.03125 -13.25 L 17.140625 -12.796875 L 17.09375 -10.5625 L 16.9375 -10.125 L 16.84375 -9.53125 L 16.390625 -8.46875 L 15.8125 -7.59375 L 15.453125 -7.1875 L 15.109375 -6.828125 L 14.71875 -6.390625 L 14.3125 -6.0625 L 11.734375 -5.03125 L 8.921875 -4.8125 L 8.359375 -4.921875 L 7.75 -4.875 L 7.125 -4.578125 L 6.890625 -4.078125 L 6.90625 -3.453125 L 6.859375 -2.9375 L 6.90625 -1.9375 L 6.890625 -1.328125 L 6.90625 -0.796875 L 6.671875 -0.21875 L 6.09375 0 L 5.46875 0.046875 L 4.984375 0.03125 Z M 7.734375 -9.234375 L 8.390625 -9.28125 L 9.765625 -9.25 L 10.609375 -9.359375 L 11.046875 -9.5 L 11.484375 -9.828125 L 11.84375 -10.265625 L 12.078125 -10.703125 L 12.28125 -11.1875 L 12.328125 -11.921875 L 12.28125 -12.6875 L 12.1875 -13.171875 L 11.921875 -13.71875 L 11.5625 -14.078125 L 11.125 -14.375 L 10.59375 -14.609375 L 7.75 -14.703125 L 7.1875 -14.421875 L 6.90625 -13.90625 L 6.90625 -12.796875 L 6.859375 -12.21875 L 6.9375 -10.015625 L 7.1875 -9.546875 Z M 7.734375 -9.234375 "></path></g></g></g><g fill="#ffffff" fill-opacity="1"><g transform="translate(53.10242, 26.046501)"><g><path d="M 2.09375 -0.875 L 2.015625 -3 L 2.0625 -3.5625 L 1.953125 -5.140625 L 2.046875 -6.265625 L 1.953125 -6.859375 L 1.984375 -7.890625 L 2.046875 -8.46875 L 2.046875 -9.828125 L 1.953125 -10.609375 L 2.046875 -18.234375 L 2.265625 -18.8125 L 2.78125 -19.046875 L 3.375 -19.03125 L 3.890625 -19.109375 L 5.015625 -19 L 5.53125 -19.078125 L 7.15625 -19.03125 L 7.625 -19.078125 L 8.21875 -19.03125 L 8.765625 -19.078125 L 9.359375 -19.046875 L 10.15625 -19.078125 L 10.828125 -19.03125 L 13.09375 -18.5625 L 14.046875 -18.078125 L 15.40625 -17.03125 L 15.65625 -16.625 L 16.03125 -16.21875 L 16.765625 -14.71875 L 16.90625 -14.1875 L 16.984375 -13.65625 L 17.125 -13.140625 L 17.09375 -11 L 16.796875 -9.96875 L 16.609375 -9.5 L 16.296875 -9.015625 L 16.109375 -8.5 L 15.78125 -8.03125 L 15.03125 -7.296875 L 14.71875 -6.71875 L 14.8125 -6.0625 L 15.625 -4.65625 L 15.984375 -4.21875 L 16.25 -3.734375 L 16.578125 -3.234375 L 16.828125 -2.78125 L 17.6875 -1.4375 L 18.046875 -0.765625 L 17.9375 -0.1875 L 17.359375 -0.046875 L 16.765625 0 L 15.671875 0 L 15.140625 -0.046875 L 14.53125 0 L 13.5625 -0.046875 L 12.875 -0.21875 L 12.328125 -0.703125 L 12 -1.140625 L 11.765625 -1.609375 L 11.40625 -2.125 L 10.640625 -3.484375 L 10.453125 -4 L 9.75 -4.953125 L 9.3125 -5.421875 L 8.625 -5.640625 L 8.140625 -5.609375 L 7.65625 -5.609375 L 7.109375 -5.328125 L 6.859375 -4.796875 L 6.90625 -3.109375 L 6.828125 -1.9375 L 6.9375 -1.359375 L 6.890625 -0.796875 L 6.703125 -0.265625 L 5.859375 0 L 5.03125 0 L 4.46875 -0.046875 L 3.34375 0.03125 L 2.828125 0 L 2.28125 -0.265625 Z M 7.65625 -10.015625 L 8.25 -10.015625 L 8.796875 -9.9375 L 10.921875 -10.125 L 11.328125 -10.3125 L 11.65625 -10.640625 L 11.953125 -11.109375 L 12.171875 -11.65625 L 12.25 -12.390625 L 12.1875 -13.171875 L 12 -13.609375 L 11.734375 -14.015625 L 10.890625 -14.53125 L 9.640625 -14.703125 L 8.140625 -14.71875 L 7.703125 -14.703125 L 7.15625 -14.421875 L 6.828125 -13.875 L 6.90625 -10.828125 L 7.1875 -10.265625 Z M 7.65625 -10.015625 "></path></g></g></g><g fill="#ffffff" fill-opacity="1"><g transform="translate(71.962071, 26.046501)"><g><path d="M 1.953125 -0.796875 L 2.0625 -1.328125 L 2.09375 -1.875 L 2.046875 -2.9375 L 2.046875 -3.484375 L 1.984375 -4.109375 L 2.0625 -4.59375 L 2.046875 -5.109375 L 2.09375 -5.71875 L 2.015625 -6.28125 L 2.0625 -7.375 L 1.984375 -8.4375 L 2.0625 -9.015625 L 2.0625 -13.875 L 2.015625 -14.375 L 2.0625 -14.9375 L 1.953125 -16.328125 L 2.0625 -17.125 L 2.015625 -18.203125 L 2.28125 -18.8125 L 3.078125 -19 L 6.640625 -19.078125 L 7.125 -19.03125 L 8.1875 -19.046875 L 8.734375 -19 L 9.9375 -19.046875 L 10.484375 -18.96875 L 10.96875 -19.03125 L 13.140625 -19 L 13.71875 -18.75 L 13.984375 -18.203125 L 13.90625 -17.6875 L 13.875 -17.09375 L 13.96875 -16.578125 L 14.015625 -15.453125 L 13.71875 -14.96875 L 13.140625 -14.671875 L 7.921875 -14.640625 L 7.078125 -14.40625 L 6.8125 -13.609375 L 6.859375 -12.765625 L 7.1875 -12.28125 L 7.65625 -11.96875 L 9.796875 -12 L 10.421875 -11.953125 L 11 -11.953125 L 11.546875 -12 L 12.625 -11.96875 L 13.09375 -11.671875 L 13.34375 -11.15625 L 13.390625 -10.609375 L 13.34375 -8.46875 L 13.0625 -7.953125 L 12.515625 -7.65625 L 12.03125 -7.625 L 11.453125 -7.671875 L 10.71875 -7.625 L 9.28125 -7.703125 L 8.734375 -7.65625 L 7.671875 -7.65625 L 7.1875 -7.34375 L 6.9375 -6.78125 L 6.90625 -5.4375 L 7.15625 -4.59375 L 7.734375 -4.265625 L 8.328125 -4.328125 L 8.921875 -4.265625 L 9.4375 -4.359375 L 13.03125 -4.296875 L 13.859375 -4.03125 L 14.203125 -3.484375 L 14.15625 -2.96875 L 14.1875 -1.28125 L 14.125 -0.765625 L 13.875 -0.25 L 13.3125 0.03125 L 12.796875 0.078125 L 11.125 -0.03125 L 9.46875 0.046875 L 8.984375 -0.03125 L 2.828125 0.03125 L 2.3125 -0.265625 Z M 1.953125 -0.796875 "></path></g></g></g><g fill="#ffffff" fill-opacity="1"><g transform="translate(87.555981, 26.046501)"><g><path d="M 7.890625 0.21875 L 6.75 0.140625 L 6.234375 -0.046875 L 5.640625 -0.140625 L 3.671875 -1.03125 L 3.21875 -1.328125 L 2.421875 -2.125 L 1.734375 -2.96875 L 1.3125 -4.0625 L 1.203125 -4.546875 L 1.140625 -5.140625 L 1.328125 -5.71875 L 1.875 -5.953125 L 2.421875 -5.9375 L 2.96875 -5.984375 L 5.03125 -5.9375 L 5.578125 -5.71875 L 5.984375 -5.171875 L 6.390625 -4.796875 L 6.890625 -4.484375 L 7.296875 -4.296875 L 7.921875 -4.140625 L 8.734375 -4.078125 L 9.5 -4.109375 L 10.5 -4.40625 L 10.9375 -4.65625 L 11.375 -5.03125 L 11.546875 -5.75 L 11.40625 -6.453125 L 11.03125 -6.78125 L 10.046875 -7.1875 L 9.5 -7.21875 L 9.015625 -7.296875 L 6.78125 -7.453125 L 5.796875 -7.671875 L 4.25 -8.1875 L 3.296875 -8.765625 L 2.53125 -9.46875 L 1.84375 -10.375 L 1.5 -11.328125 L 1.3125 -12.078125 L 1.28125 -13.90625 L 1.65625 -15.484375 L 1.9375 -15.921875 L 2.125 -16.40625 L 2.484375 -16.765625 L 2.78125 -17.234375 L 3.265625 -17.5625 L 3.640625 -17.90625 L 4.1875 -18.234375 L 4.625 -18.40625 L 5.0625 -18.671875 L 5.546875 -18.859375 L 7.703125 -19.296875 L 9.234375 -19.328125 L 9.828125 -19.1875 L 10.3125 -19.140625 L 10.890625 -19.03125 L 12.390625 -18.515625 L 14.125 -17.3125 L 14.484375 -16.90625 L 14.75 -16.46875 L 15.109375 -16.03125 L 15.546875 -15.046875 L 15.765625 -13.984375 L 15.515625 -13.46875 L 15 -13.140625 L 14.484375 -13.203125 L 13.984375 -13.140625 L 12.1875 -13.203125 L 11.34375 -13.46875 L 10.453125 -14.421875 L 10.046875 -14.75 L 9.4375 -14.96875 L 7.703125 -14.921875 L 7.21875 -14.8125 L 6.828125 -14.640625 L 6.375 -14.296875 L 6.0625 -13.90625 L 5.984375 -13.203125 L 6.015625 -12.46875 L 6.453125 -12.03125 L 6.859375 -11.8125 L 8 -11.40625 L 10.75 -11.046875 L 12.984375 -10.5 L 14.421875 -9.859375 L 14.890625 -9.46875 L 15.546875 -8.625 L 16.09375 -7.625 L 16.21875 -7.109375 L 16.296875 -6.5625 L 16.28125 -4.875 L 16.1875 -4.375 L 16.03125 -3.84375 L 15.8125 -3.34375 L 15.265625 -2.484375 L 14.5 -1.609375 L 13.640625 -1 L 12.21875 -0.25 L 9.546875 0.265625 L 8.6875 0.296875 Z M 7.890625 0.21875 "></path></g></g></g><g fill="#ffffff" fill-opacity="1"><g transform="translate(104.918822, 26.046501)"><g><path d="M 7.890625 0.21875 L 6.75 0.140625 L 6.234375 -0.046875 L 5.640625 -0.140625 L 3.671875 -1.03125 L 3.21875 -1.328125 L 2.421875 -2.125 L 1.734375 -2.96875 L 1.3125 -4.0625 L 1.203125 -4.546875 L 1.140625 -5.140625 L 1.328125 -5.71875 L 1.875 -5.953125 L 2.421875 -5.9375 L 2.96875 -5.984375 L 5.03125 -5.9375 L 5.578125 -5.71875 L 5.984375 -5.171875 L 6.390625 -4.796875 L 6.890625 -4.484375 L 7.296875 -4.296875 L 7.921875 -4.140625 L 8.734375 -4.078125 L 9.5 -4.109375 L 10.5 -4.40625 L 10.9375 -4.65625 L 11.375 -5.03125 L 11.546875 -5.75 L 11.40625 -6.453125 L 11.03125 -6.78125 L 10.046875 -7.1875 L 9.5 -7.21875 L 9.015625 -7.296875 L 6.78125 -7.453125 L 5.796875 -7.671875 L 4.25 -8.1875 L 3.296875 -8.765625 L 2.53125 -9.46875 L 1.84375 -10.375 L 1.5 -11.328125 L 1.3125 -12.078125 L 1.28125 -13.90625 L 1.65625 -15.484375 L 1.9375 -15.921875 L 2.125 -16.40625 L 2.484375 -16.765625 L 2.78125 -17.234375 L 3.265625 -17.5625 L 3.640625 -17.90625 L 4.1875 -18.234375 L 4.625 -18.40625 L 5.0625 -18.671875 L 5.546875 -18.859375 L 7.703125 -19.296875 L 9.234375 -19.328125 L 9.828125 -19.1875 L 10.3125 -19.140625 L 10.890625 -19.03125 L 12.390625 -18.515625 L 14.125 -17.3125 L 14.484375 -16.90625 L 14.75 -16.46875 L 15.109375 -16.03125 L 15.546875 -15.046875 L 15.765625 -13.984375 L 15.515625 -13.46875 L 15 -13.140625 L 14.484375 -13.203125 L 13.984375 -13.140625 L 12.1875 -13.203125 L 11.34375 -13.46875 L 10.453125 -14.421875 L 10.046875 -14.75 L 9.4375 -14.96875 L 7.703125 -14.921875 L 7.21875 -14.8125 L 6.828125 -14.640625 L 6.375 -14.296875 L 6.0625 -13.90625 L 5.984375 -13.203125 L 6.015625 -12.46875 L 6.453125 -12.03125 L 6.859375 -11.8125 L 8 -11.40625 L 10.75 -11.046875 L 12.984375 -10.5 L 14.421875 -9.859375 L 14.890625 -9.46875 L 15.546875 -8.625 L 16.09375 -7.625 L 16.21875 -7.109375 L 16.296875 -6.5625 L 16.28125 -4.875 L 16.1875 -4.375 L 16.03125 -3.84375 L 15.8125 -3.34375 L 15.265625 -2.484375 L 14.5 -1.609375 L 13.640625 -1 L 12.21875 -0.25 L 9.546875 0.265625 L 8.6875 0.296875 Z M 7.890625 0.21875 "></path></g></g></g><g fill="#ffffff" fill-opacity="1"><g transform="translate(17.463629, 52.195688)"><g><path d="M 7.109375 0.046875 L 6.265625 0.03125 L 5.46875 -0.25 L 5.109375 -0.84375 L 5.171875 -1.359375 L 5.203125 -2.9375 L 5.140625 -3.515625 L 5.171875 -5.71875 L 5.21875 -6.265625 L 5.140625 -10.3125 L 5.203125 -11.078125 L 5.171875 -11.625 L 5.203125 -12.21875 L 5.140625 -12.984375 L 5.203125 -13.859375 L 4.90625 -14.40625 L 4.375 -14.671875 L 1.796875 -14.71875 L 1.25 -14.671875 L 0.765625 -14.9375 L 0.515625 -15.4375 L 0.46875 -16.28125 L 0.515625 -17.640625 L 0.484375 -18.1875 L 0.8125 -18.8125 L 1.328125 -19.078125 L 3.234375 -18.96875 L 4.078125 -19.046875 L 5.6875 -18.96875 L 6.171875 -19.078125 L 6.78125 -19.03125 L 7.34375 -19.109375 L 7.859375 -19.078125 L 8.40625 -18.96875 L 10.609375 -19.078125 L 11.125 -19.03125 L 11.703125 -19.109375 L 12.21875 -19.046875 L 13.90625 -19.046875 L 14.421875 -18.703125 L 14.71875 -18.15625 L 14.703125 -15.5625 L 14.375 -14.96875 L 13.90625 -14.671875 L 13.421875 -14.703125 L 12.84375 -14.609375 L 11.84375 -14.75 L 10.78125 -14.703125 L 10.265625 -14.375 L 10.046875 -13.5625 L 9.96875 -11.1875 L 10.046875 -10.609375 L 9.984375 -6.234375 L 10.078125 -5.640625 L 10.015625 -5.140625 L 10.046875 -4.0625 L 9.984375 -3.484375 L 10.078125 -2.453125 L 9.984375 -1.03125 L 9.71875 -0.265625 L 8.921875 0 Z M 7.109375 0.046875 "></path></g></g></g><g fill="#ffffff" fill-opacity="1"><g transform="translate(32.404297, 52.195688)"><g><path d="M 2.09375 -0.875 L 2.015625 -3 L 2.0625 -3.5625 L 1.953125 -5.140625 L 2.046875 -6.265625 L 1.953125 -6.859375 L 1.984375 -7.890625 L 2.046875 -8.46875 L 2.046875 -9.828125 L 1.953125 -10.609375 L 2.046875 -18.234375 L 2.265625 -18.8125 L 2.78125 -19.046875 L 3.375 -19.03125 L 3.890625 -19.109375 L 5.015625 -19 L 5.53125 -19.078125 L 7.15625 -19.03125 L 7.625 -19.078125 L 8.21875 -19.03125 L 8.765625 -19.078125 L 9.359375 -19.046875 L 10.15625 -19.078125 L 10.828125 -19.03125 L 13.09375 -18.5625 L 14.046875 -18.078125 L 15.40625 -17.03125 L 15.65625 -16.625 L 16.03125 -16.21875 L 16.765625 -14.71875 L 16.90625 -14.1875 L 16.984375 -13.65625 L 17.125 -13.140625 L 17.09375 -11 L 16.796875 -9.96875 L 16.609375 -9.5 L 16.296875 -9.015625 L 16.109375 -8.5 L 15.78125 -8.03125 L 15.03125 -7.296875 L 14.71875 -6.71875 L 14.8125 -6.0625 L 15.625 -4.65625 L 15.984375 -4.21875 L 16.25 -3.734375 L 16.578125 -3.234375 L 16.828125 -2.78125 L 17.6875 -1.4375 L 18.046875 -0.765625 L 17.9375 -0.1875 L 17.359375 -0.046875 L 16.765625 0 L 15.671875 0 L 15.140625 -0.046875 L 14.53125 0 L 13.5625 -0.046875 L 12.875 -0.21875 L 12.328125 -0.703125 L 12 -1.140625 L 11.765625 -1.609375 L 11.40625 -2.125 L 10.640625 -3.484375 L 10.453125 -4 L 9.75 -4.953125 L 9.3125 -5.421875 L 8.625 -5.640625 L 8.140625 -5.609375 L 7.65625 -5.609375 L 7.109375 -5.328125 L 6.859375 -4.796875 L 6.90625 -3.109375 L 6.828125 -1.9375 L 6.9375 -1.359375 L 6.890625 -0.796875 L 6.703125 -0.265625 L 5.859375 0 L 5.03125 0 L 4.46875 -0.046875 L 3.34375 0.03125 L 2.828125 0 L 2.28125 -0.265625 Z M 7.65625 -10.015625 L 8.25 -10.015625 L 8.796875 -9.9375 L 10.921875 -10.125 L 11.328125 -10.3125 L 11.65625 -10.640625 L 11.953125 -11.109375 L 12.171875 -11.65625 L 12.25 -12.390625 L 12.1875 -13.171875 L 12 -13.609375 L 11.734375 -14.015625 L 10.890625 -14.53125 L 9.640625 -14.703125 L 8.140625 -14.71875 L 7.703125 -14.703125 L 7.15625 -14.421875 L 6.828125 -13.875 L 6.90625 -10.828125 L 7.1875 -10.265625 Z M 7.65625 -10.015625 "></path></g></g></g><g fill="#ffffff" fill-opacity="1"><g transform="translate(51.263948, 52.195688)"><g><path d="M 0.359375 -0.734375 L 0.6875 -1.875 L 0.921875 -2.421875 L 1.25 -2.859375 L 2.046875 -4.84375 L 2.796875 -6.265625 L 3 -6.8125 L 3.234375 -7.234375 L 3.40625 -7.8125 L 3.78125 -8.515625 L 3.96875 -9.03125 L 4.375 -9.75 L 4.8125 -10.71875 L 5.109375 -11.21875 L 5.25 -11.671875 L 6.78125 -15.109375 L 7.078125 -15.59375 L 8.25 -18.046875 L 8.40625 -18.53125 L 8.921875 -19.03125 L 9.796875 -19.296875 L 10.71875 -19.046875 L 11.21875 -18.53125 L 11.375 -18.015625 L 11.625 -17.609375 L 12.0625 -16.578125 L 12.609375 -15.5625 L 13.015625 -14.609375 L 13.140625 -14.1875 L 13.640625 -13.140625 L 13.796875 -12.625 L 14.34375 -11.671875 L 14.484375 -11.15625 L 14.75 -10.703125 L 14.96875 -10.234375 L 15.265625 -9.75 L 15.4375 -9.203125 L 15.671875 -8.796875 L 15.875 -8.25 L 16.109375 -7.78125 L 16.328125 -7.234375 L 16.625 -6.8125 L 17.015625 -5.796875 L 17.28125 -5.328125 L 17.46875 -4.8125 L 17.9375 -3.84375 L 18.09375 -3.328125 L 18.375 -2.90625 L 18.53125 -2.375 L 18.890625 -1.90625 L 19.078125 -1.421875 L 19.25 -0.734375 L 19.140625 -0.15625 L 18.640625 0 L 16.953125 0.046875 L 16 -0.03125 L 15.515625 0.03125 L 14.8125 -0.25 L 14.34375 -0.6875 L 14.046875 -1.171875 L 13.90625 -1.65625 L 13.34375 -2.09375 L 12.4375 -2.390625 L 11.15625 -2.34375 L 10.59375 -2.390625 L 10.09375 -2.390625 L 9.46875 -2.3125 L 8.90625 -2.390625 L 7.375 -2.375 L 6.828125 -2.421875 L 6.171875 -2.15625 L 5.71875 -1.640625 L 5.25 -0.703125 L 4.765625 -0.21875 L 4.140625 0.046875 L 3.421875 -0.03125 L 1.03125 -0.03125 L 0.484375 -0.15625 Z M 8.765625 -6.71875 L 10.890625 -6.75 L 11.34375 -6.96875 L 11.40625 -7.453125 L 11.21875 -7.953125 L 10.9375 -8.5 L 10.828125 -8.921875 L 10.53125 -9.390625 L 10.1875 -10.453125 L 9.859375 -10.671875 L 9.5 -10.390625 L 9.25 -9.96875 L 8.171875 -7.484375 L 8.25 -6.9375 Z M 8.765625 -6.71875 "></path></g></g></g><g fill="#ffffff" fill-opacity="1"><g transform="translate(71.021673, 52.195688)"><g><path d="M 2.046875 -0.84375 L 2.09375 -1.875 L 2.015625 -4.0625 L 2.0625 -4.59375 L 2.015625 -6.78125 L 2.09375 -7.84375 L 2.015625 -8.40625 L 2.09375 -8.921875 L 2.015625 -10.09375 L 2.09375 -11.125 L 1.984375 -13.3125 L 2.0625 -13.859375 L 1.984375 -14.40625 L 2.0625 -15 L 2.015625 -16.03125 L 2.046875 -16.578125 L 1.984375 -17.125 L 1.984375 -18.234375 L 2.390625 -18.75 L 2.890625 -19.046875 L 3.453125 -19.03125 L 3.953125 -19.046875 L 4.484375 -19 L 6.234375 -19.046875 L 6.78125 -19 L 10.640625 -18.96875 L 11.765625 -18.75 L 13.25 -18.265625 L 13.796875 -17.984375 L 14.8125 -17.359375 L 15.5625 -16.625 L 16.03125 -16.28125 L 16.734375 -15.4375 L 16.953125 -14.96875 L 17.578125 -14.046875 L 17.984375 -12.953125 L 18.125 -12.46875 L 18.1875 -11.890625 L 18.59375 -10.34375 L 18.484375 -8.59375 L 18.515625 -8.140625 L 18.375 -7.5625 L 18.296875 -7 L 18.09375 -6.5 L 17.984375 -5.953125 L 17.71875 -5.4375 L 17.578125 -4.921875 L 16.734375 -3.5625 L 15.65625 -2.3125 L 13.34375 -0.765625 L 11.765625 -0.265625 L 10.015625 -0.03125 L 5.109375 0 L 4.546875 0.078125 L 4 0.078125 L 3.421875 0 L 2.796875 0 L 2.375 -0.25 Z M 7.8125 -4.375 L 10.078125 -4.484375 L 11.046875 -4.765625 L 11.59375 -5.03125 L 12.03125 -5.3125 L 12.359375 -5.75 L 12.71875 -6.125 L 13.0625 -6.609375 L 13.46875 -7.59375 L 13.640625 -8.109375 L 13.765625 -9.4375 L 13.6875 -10.28125 L 13.359375 -11.890625 L 13.015625 -12.328125 L 12.71875 -12.84375 L 12.03125 -13.609375 L 11.109375 -14.203125 L 10.015625 -14.53125 L 9.203125 -14.59375 L 8.625 -14.5625 L 8.0625 -14.59375 L 7.265625 -14.296875 L 6.9375 -13.796875 L 6.9375 -6.8125 L 6.859375 -6.265625 L 6.96875 -5.765625 L 6.90625 -5.21875 L 7.15625 -4.625 Z M 7.8125 -4.375 "></path></g></g></g><g fill="#ffffff" fill-opacity="1"><g transform="translate(90.806617, 52.195688)"><g><path d="M 1.953125 -0.796875 L 2.0625 -1.328125 L 2.09375 -1.875 L 2.046875 -2.9375 L 2.046875 -3.484375 L 1.984375 -4.109375 L 2.0625 -4.59375 L 2.046875 -5.109375 L 2.09375 -5.71875 L 2.015625 -6.28125 L 2.0625 -7.375 L 1.984375 -8.4375 L 2.0625 -9.015625 L 2.0625 -13.875 L 2.015625 -14.375 L 2.0625 -14.9375 L 1.953125 -16.328125 L 2.0625 -17.125 L 2.015625 -18.203125 L 2.28125 -18.8125 L 3.078125 -19 L 6.640625 -19.078125 L 7.125 -19.03125 L 8.1875 -19.046875 L 8.734375 -19 L 9.9375 -19.046875 L 10.484375 -18.96875 L 10.96875 -19.03125 L 13.140625 -19 L 13.71875 -18.75 L 13.984375 -18.203125 L 13.90625 -17.6875 L 13.875 -17.09375 L 13.96875 -16.578125 L 14.015625 -15.453125 L 13.71875 -14.96875 L 13.140625 -14.671875 L 7.921875 -14.640625 L 7.078125 -14.40625 L 6.8125 -13.609375 L 6.859375 -12.765625 L 7.1875 -12.28125 L 7.65625 -11.96875 L 9.796875 -12 L 10.421875 -11.953125 L 11 -11.953125 L 11.546875 -12 L 12.625 -11.96875 L 13.09375 -11.671875 L 13.34375 -11.15625 L 13.390625 -10.609375 L 13.34375 -8.46875 L 13.0625 -7.953125 L 12.515625 -7.65625 L 12.03125 -7.625 L 11.453125 -7.671875 L 10.71875 -7.625 L 9.28125 -7.703125 L 8.734375 -7.65625 L 7.671875 -7.65625 L 7.1875 -7.34375 L 6.9375 -6.78125 L 6.90625 -5.4375 L 7.15625 -4.59375 L 7.734375 -4.265625 L 8.328125 -4.328125 L 8.921875 -4.265625 L 9.4375 -4.359375 L 13.03125 -4.296875 L 13.859375 -4.03125 L 14.203125 -3.484375 L 14.15625 -2.96875 L 14.1875 -1.28125 L 14.125 -0.765625 L 13.875 -0.25 L 13.3125 0.03125 L 12.796875 0.078125 L 11.125 -0.03125 L 9.46875 0.046875 L 8.984375 -0.03125 L 2.828125 0.03125 L 2.3125 -0.265625 Z M 1.953125 -0.796875 "></path></g></g></g></g></g></svg>